<?xml version="1.0" encoding="UTF-8"?>
<svg width="25px" height="25px" viewBox="0 0 25 25" version="1.1" xmlns="http://www.w3.org/2000/svg" xmlns:xlink="http://www.w3.org/1999/xlink">
    <title>客服</title>
    <g id="客服" stroke="none" stroke-width="1" fill="none" fill-rule="evenodd">
        <path d="M12.6717894,1 C16.7485524,1 20.478596,3.78603211 22.0814335,7.97846684 C23.7983156,8.52073357 25,10.2482658 25,12.2809524 C25,14.3312413 23.7518694,16.0629152 22.0546604,16.5936444 C21.4782247,19.7133791 19.2448135,21.8346685 16.1178308,22.2955804 C15.8356947,23.0116621 15.1448682,23.4828267 14.375211,23.4841001 L14.375211,23.4841001 L12.0761244,23.4841001 C11.0472068,23.4749607 10.2179189,22.6382739 10.2179189,21.6093157 C10.2179189,20.5803575 11.0472068,19.7436707 12.0761244,19.7345313 L12.0761244,19.7345313 L14.375211,19.7345313 C15.033341,19.7353433 15.6427676,20.0814694 15.9805631,20.6462967 C18.2392682,20.291294 19.7987657,18.8860747 20.3397012,16.7060619 C20.2085721,16.6841344 20.0787115,16.6551997 19.9506773,16.6193821 C19.5952949,16.5177327 19.3502688,16.1929223 19.350131,15.8232884 L19.350131,15.8232884 L19.350131,8.73994777 C19.3502499,8.37035521 19.5952056,8.04555802 19.9505294,7.94385407 C20.0468252,7.91680826 20.1441872,7.89371377 20.2423713,7.87462854 C18.7603827,4.67058067 15.8879665,2.65667957 12.6717894,2.65667957 C9.46862905,2.65667957 6.60005879,4.65993058 5.11378055,7.84755957 C5.2690134,7.86904628 5.42301071,7.89867064 5.57513623,7.93631027 C5.94310704,8.02900872 6.20103374,8.3598887 6.20112444,8.7393561 L6.20112444,8.7393561 L6.20112444,15.8226967 C6.20099959,16.20225 5.94292867,16.5331586 5.57484039,16.6257425 C3.19942845,17.2240163 0.783958943,15.803345 0.152470212,13.4365464 C-0.479018519,11.0697479 0.907678716,8.63461526 3.26539949,7.97003553 C4.88509961,3.72168786 8.53674679,1 12.6717894,1 Z M16.1770523,13.2747724 C16.5006255,13.4492515 16.6214901,13.8530027 16.447011,14.1765759 C15.4933228,15.9451994 14.1519852,16.8762222 12.4755404,16.8762222 C10.7990955,16.8762222 9.45775795,15.9451994 8.50406977,14.1765759 C8.32959065,13.8530027 8.45045524,13.4492515 8.7740284,13.2747724 C9.09760156,13.1002933 9.5013527,13.2211579 9.67583183,13.5447311 C10.4116749,14.9093589 11.327397,15.5449618 12.4755404,15.5449618 C13.6236837,15.5449618 14.5394058,14.9093589 15.2752489,13.5447311 C15.449728,13.2211579 15.8534792,13.1002933 16.1770523,13.2747724 Z M4.54533238,9.45631377 L4.48098813,9.45631377 C2.92139173,9.45631377 1.65708905,10.7206165 1.65708905,12.2802128 C1.65708905,13.8398092 2.92139173,15.1041119 4.48098813,15.1041119 L4.48098813,15.1041119 L4.54533238,15.1041119 L4.54533238,9.45631377 Z M21.0062189,9.45749711 L21.0062189,15.1044078 C22.2993165,15.076895 23.3443559,13.8207769 23.3446517,12.2812483 C23.3446517,10.8899333 22.4698657,9.68869266 21.3097463,9.48708068 C21.2094533,9.46963792 21.1079924,9.45974894 21.0062189,9.45749711 L21.0062189,9.45749711 Z" id="形状结合" stroke="#B8B8B8" stroke-width="0.2" fill="#B8B8B8" fill-rule="nonzero"></path>
    </g>
</svg>