<?xml version="1.0" encoding="UTF-8"?>
<svg width="25px" height="25px" viewBox="0 0 25 25" version="1.1" xmlns="http://www.w3.org/2000/svg" xmlns:xlink="http://www.w3.org/1999/xlink">
    <title>站内信</title>
    <g id="站内信" stroke="none" stroke-width="1" fill="none" fill-rule="evenodd">
        <path d="M11.952381,1.10952381 C17.9407256,1.10952381 22.7952381,5.96403631 22.7952381,11.952381 C22.7952381,17.9407256 17.9407256,22.7952381 11.952381,22.7952381 C10.863876,22.7952381 9.79582645,22.6345111 8.77419659,22.3217317 C8.69719702,22.2981577 8.20453822,22.423194 7.23665098,22.7398454 L7.23665098,22.7398454 L5.61639133,23.2894174 C3.44022203,24.0238745 2.71634,24.1383116 1.96931325,23.5897429 C1.2983072,23.096999 1.27765233,22.3889387 1.54919292,21.5008251 C1.64161404,21.1985482 1.74444385,20.930849 1.92928388,20.5138536 L1.92928388,20.5138536 L2.47131925,19.3322915 C2.68792522,18.8572858 2.79932861,18.5868203 2.88427852,18.3254414 L2.88427852,18.3254414 L2.92024562,18.2077082 C2.93063886,18.1711166 2.93944951,18.1372359 2.94671716,18.1062403 L2.94671716,18.1062403 L2.9637619,18.0167143 L2.8432944,17.8360897 C1.78931203,16.2076894 1.1877248,14.3227579 1.11664351,12.3483962 L1.11664351,12.3483962 L1.10952381,11.952381 C1.10952381,5.96403631 5.96403631,1.10952381 11.952381,1.10952381 Z M11.952381,3.08095238 C7.05282624,3.08095238 3.08095238,7.05282624 3.08095238,11.952381 C3.08095238,13.7952955 3.64305023,15.5513848 4.67585342,17.0287554 L4.67585342,17.0287554 L4.74403441,17.1308291 C5.23615863,17.905493 5.02409035,18.5213801 4.07550628,20.5612308 L4.07550628,20.5612308 L3.97356818,20.7809617 C3.80103596,21.1541938 3.6838922,21.4157817 3.59800983,21.6256497 L3.59800983,21.6256497 L3.51028571,21.8522381 L3.75397333,21.7960137 C4.04087587,21.7240084 4.36335432,21.6270421 4.80088777,21.4826278 L4.80088777,21.4826278 L6.18995786,21.0088001 C8.14730489,20.3411389 8.67237602,20.2288059 9.351322,20.4366702 L9.351322,20.4366702 L9.71152788,20.5386203 C10.4364189,20.7272259 11.1874972,20.8238095 11.952381,20.8238095 C16.8519357,20.8238095 20.8238095,16.8519357 20.8238095,11.952381 C20.8238095,7.05282624 16.8519357,3.08095238 11.952381,3.08095238 Z M15.0190476,13.1571429 C15.5634426,13.1571429 16.0047619,13.5984622 16.0047619,14.1428571 C16.0047619,14.6453756 15.6287265,15.0600662 15.1426935,15.1208913 L15.0190476,15.1285714 L9.54285714,15.1285714 C8.99846218,15.1285714 8.55714286,14.6872521 8.55714286,14.1428571 C8.55714286,13.6403387 8.93317825,13.2256481 9.41921124,13.164823 L9.54285714,13.1571429 L15.0190476,13.1571429 Z M15.0190476,8.77619048 C15.5634426,8.77619048 16.0047619,9.21750979 16.0047619,9.76190476 C16.0047619,10.2644232 15.6287265,10.6791139 15.1426935,10.7399389 L15.0190476,10.747619 L9.54285714,10.747619 C8.99846218,10.747619 8.55714286,10.3062997 8.55714286,9.76190476 C8.55714286,9.25938633 8.93317825,8.84469567 9.41921124,8.78387059 L9.54285714,8.77619048 L15.0190476,8.77619048 Z" id="形状结合" fill="#B8B8B8"></path>
    </g>
</svg>